<svg width="32" height="32" viewBox="0 0 32 32" fill="none" xmlns="http://www.w3.org/2000/svg">
<rect width="32" height="32" rx="4" fill="#444444"/>
<path d="M19.9253 5.9209C19.9694 5.9209 20.0134 5.9209 20.06 5.9209C20.168 7.25597 19.6585 8.25353 19.0391 8.97593C18.4315 9.69334 17.5993 10.3891 16.2535 10.2836C16.1637 8.96761 16.6741 8.04404 17.2926 7.3233C17.8662 6.65161 18.9178 6.05391 19.9253 5.9209Z" fill="white"/>
<path d="M23.9998 19.817C23.9998 19.8303 23.9998 19.8419 23.9998 19.8544C23.6216 21 23.0821 21.9817 22.4237 22.8928C21.8227 23.72 21.0861 24.8331 19.771 24.8331C18.6346 24.8331 17.8798 24.1024 16.7151 24.0824C15.4832 24.0625 14.8057 24.6934 13.6792 24.8522C13.5504 24.8522 13.4215 24.8522 13.2952 24.8522C12.468 24.7325 11.8005 24.0774 11.3142 23.4872C9.8802 21.7431 8.77208 19.4903 8.56592 16.6074C8.56592 16.3247 8.56592 16.0429 8.56592 15.7603C8.6532 13.697 9.65575 12.0194 10.9883 11.2064C11.6916 10.7741 12.6584 10.4059 13.7349 10.5705C14.1963 10.642 14.6677 10.7999 15.0808 10.9562C15.4724 11.1067 15.962 11.3735 16.4259 11.3594C16.7401 11.3502 17.0527 11.1865 17.3694 11.0709C18.2971 10.7359 19.2066 10.3518 20.4053 10.5322C21.8459 10.75 22.8684 11.3901 23.5002 12.3777C22.2815 13.1533 21.3181 14.3221 21.4827 16.3181C21.629 18.1311 22.6831 19.1919 23.9998 19.817Z" fill="white"/>
</svg>
