<svg
  id="estrategia-logo"
  width="152"
  height="48"
  viewBox="0 0 152 48"
  xmlns="http://www.w3.org/2000/svg"
>
  <path
    fill-rule="evenodd"
    clip-rule="evenodd"
    d="M12.0028 0C6.59206 0 1.95589 3.58308 0.00557776 8.23392C0.00557776 8.23392 2.44068 8.53664 4.5303 9.08153C5.18784 9.25215 5.81194 9.44479 6.31345 9.66495C8.13002 10.4465 9.5231 11.0795 10.476 11.5253C11.479 11.9931 11.9972 12.2518 11.9972 12.2518C11.9972 12.2518 12.6102 11.9271 13.6188 11.4482C14.6552 10.9584 16.1096 10.2979 17.759 9.65944C18.3107 9.44479 18.9348 9.25765 19.5644 9.08703C21.7153 8.52012 24 8.22841 24 8.22841C22.0497 3.58308 17.4135 0 12.0028 0ZM1.8333 14.0186C1.8333 12.2023 2.94219 10.6447 4.5303 9.96216C5.18784 10.1328 5.81194 10.3254 6.31902 10.5401C8.1356 11.3216 9.52868 11.9546 10.4815 12.4004C10.6821 12.9013 10.7936 13.4462 10.7936 14.0186C10.7936 16.4623 8.78756 18.4438 6.31345 18.4438C3.83933 18.4438 1.8333 16.4623 1.8333 14.0186ZM6.31345 15.0038C6.86511 15.0038 7.31089 14.5635 7.31089 14.0186C7.31089 13.4792 6.86511 13.0334 6.31345 13.0334C5.76179 13.0334 5.316 13.4737 5.316 14.0186C5.316 14.5635 5.76179 15.0038 6.31345 15.0038ZM13.6187 12.3344C13.4014 12.8572 13.2788 13.4242 13.2788 14.0241C13.2788 16.4678 15.2849 18.4493 17.759 18.4493C20.2331 18.4493 22.2391 16.4678 22.2391 14.0241C22.2391 12.2133 21.1414 10.6612 19.5644 9.97867C18.9292 10.1438 18.3051 10.3364 17.759 10.5511C16.1152 11.184 14.6552 11.839 13.6187 12.3344ZM18.7564 14.0186C18.7564 14.5635 18.3106 15.0038 17.759 15.0038C17.2073 15.0038 16.7615 14.5635 16.7615 14.0186C16.7615 13.4737 17.2073 13.0334 17.759 13.0334C18.3106 13.0334 18.7564 13.4792 18.7564 14.0186ZM12.0028 15.7964L10.9106 16.8751C10.6376 17.1448 10.5763 17.5576 10.7602 17.8934L12.0028 19.5721L13.2454 17.8989C13.4293 17.5631 13.368 17.1448 13.095 16.8696L12.0028 15.7964ZM12.0028 25.808C11.4567 25.808 10.9218 25.7695 10.3924 25.698C5.09867 25.01 0.880427 20.9646 0 15.7908V42.7767V43.0795V44.1252C0.947295 44.0977 1.86673 43.9271 2.74158 43.6354C4.53587 42.8593 6.16299 41.786 7.56721 40.4816C10.6487 37.2893 12.56 32.4788 12.56 27.9766C12.56 27.2831 12.4096 25.797 12.4096 25.797L12.0028 25.808ZM13.3959 27.9821C13.3959 27.2556 13.3457 26.5236 13.2454 25.742C16.9566 25.3677 20.183 23.3533 22.1444 20.4362C23.0638 19.0657 23.7102 17.5026 24 15.8184C23.7882 37.7792 14.1593 45.6718 0 48V46.0241V44.9563C3.55514 44.8572 6.9264 42.9364 9.50638 39.5239C11.9805 36.2546 13.3959 32.0495 13.3959 27.9821ZM138.768 13.7268H135.859V25.4241H138.768V13.7268ZM135.956 8.53613C135.617 8.8773 135.447 9.28345 135.447 9.75459C135.447 10.2257 135.617 10.64 135.956 10.9974C136.312 11.3386 136.756 11.5092 137.289 11.5092C137.823 11.5092 138.267 11.3467 138.623 11.0218C138.995 10.6806 139.18 10.2582 139.18 9.75459C139.18 9.25096 138.995 8.83668 138.623 8.51176C138.267 8.17059 137.823 8 137.289 8C136.756 8 136.312 8.17871 135.956 8.53613ZM40 8.17059H51.3705V10.9487H43.0548V15.189H50.9341V17.9671H43.0548V22.646H51.8069V25.4241H40V8.17059ZM60.761 16.9679C60.1953 16.1719 59.4357 15.7738 58.4821 15.7738C58.0942 15.7738 57.7143 15.8713 57.3426 16.0663C56.9708 16.2612 56.785 16.578 56.785 17.0167C56.785 17.3741 56.9385 17.634 57.2456 17.7965C57.5527 17.9589 57.9406 18.097 58.4093 18.2108C58.878 18.3245 59.3791 18.4463 59.9125 18.5763C60.462 18.69 60.9711 18.8769 61.4399 19.1368C61.9086 19.3805 62.2965 19.7217 62.6036 20.1603C62.9107 20.599 63.0642 21.2001 63.0642 21.9636C63.0642 22.6622 62.9107 23.2552 62.6036 23.7426C62.3126 24.2137 61.9247 24.5955 61.4399 24.888C60.9711 25.1804 60.4378 25.3916 59.8397 25.5216C59.2417 25.6515 58.6437 25.7165 58.0457 25.7165C57.1405 25.7165 56.3082 25.5865 55.5485 25.3266C54.7889 25.0667 54.11 24.5955 53.512 23.9132L55.4515 22.0855C55.8233 22.5079 56.2193 22.8572 56.6395 23.1334C57.0759 23.3933 57.6012 23.5233 58.2154 23.5233C58.4255 23.5233 58.6437 23.4989 58.87 23.4502C59.0962 23.4014 59.3064 23.3202 59.5003 23.2065C59.6943 23.0927 59.8478 22.9547 59.961 22.7922C60.0903 22.6135 60.1549 22.4104 60.1549 22.183C60.1549 21.7768 60.0014 21.4762 59.6943 21.2813C59.3872 21.0863 58.9993 20.932 58.5305 20.8183C58.0618 20.6883 57.5527 20.5746 57.0032 20.4771C56.4698 20.3634 55.9687 20.1928 55.5 19.9654C55.0313 19.7217 54.6434 19.3886 54.3363 18.9662C54.0292 18.5438 53.8757 17.9589 53.8757 17.2116C53.8757 16.5618 54.005 16.0013 54.2636 15.5301C54.5383 15.0427 54.8939 14.6447 55.3303 14.336C55.7667 14.0274 56.2677 13.7999 56.8335 13.6537C57.3991 13.5075 57.9729 13.4344 58.5548 13.4344C59.3306 13.4344 60.0983 13.5725 60.858 13.8486C61.6176 14.1086 62.2318 14.5635 62.7006 15.2133L60.761 16.9679ZM63.9694 13.7268V16.2125H66.3696V21.5737C66.3696 22.2561 66.4181 22.8572 66.515 23.3771C66.6282 23.8969 66.8221 24.3356 67.0969 24.693C67.3878 25.0342 67.7757 25.286 68.2606 25.4485C68.7617 25.6272 69.4001 25.7165 70.1759 25.7165C70.5153 25.7165 70.9032 25.684 71.3396 25.619C71.7922 25.5703 72.172 25.4728 72.4791 25.3266V22.8653C72.3013 22.9953 72.0589 23.0927 71.7518 23.1577C71.4447 23.2065 71.1619 23.2308 70.9033 23.2308C70.2567 23.2308 69.8203 23.0603 69.5941 22.7191C69.3839 22.3779 69.2789 21.9149 69.2789 21.33V16.2125H72.4791V13.7268H69.2789V10.3395H66.3696V13.7268H63.9694ZM74.7501 13.7268H77.6594V15.5789H77.7079C78.0312 14.8965 78.4918 14.3685 79.0898 13.9949C79.6879 13.6212 80.3748 13.4344 81.1506 13.4344C81.3284 13.4344 81.4981 13.4506 81.6597 13.4831C81.8375 13.5156 82.0153 13.5562 82.1931 13.6049V16.4318C81.9507 16.3668 81.7082 16.3181 81.4658 16.2856C81.2395 16.2368 81.0132 16.2125 80.7869 16.2125C80.1081 16.2125 79.5586 16.3424 79.1383 16.6024C78.7343 16.8461 78.4191 17.1304 78.1928 17.4553C77.9827 17.7802 77.8372 18.1052 77.7564 18.4301C77.6918 18.755 77.6594 18.9987 77.6594 19.1612V25.4241H74.7501V13.7268ZM91.3737 23.8157H91.4464V25.4241H94.0648V18.6981C94.0648 18.422 94.0567 18.1052 94.0406 17.7477C94.0244 17.3741 93.9678 16.9923 93.8709 16.6024C93.7901 16.2125 93.6446 15.8307 93.4345 15.457C93.2405 15.0671 92.9577 14.7259 92.5859 14.4335C92.2142 14.1411 91.7455 13.9055 91.1798 13.7268C90.6141 13.5318 89.9191 13.4344 89.0948 13.4344C88.1735 13.4344 87.2764 13.5806 86.4036 13.873C85.547 14.1654 84.7954 14.6447 84.1489 15.3108L85.6763 16.8461C86.0642 16.4724 86.5249 16.18 87.0582 15.9688C87.5916 15.7413 88.1654 15.6276 88.7796 15.6276C89.5554 15.6276 90.1938 15.8144 90.6949 16.1881C91.1959 16.5455 91.4464 17.0898 91.4464 17.8208V18.1376H90.7191C90.2342 18.1376 89.717 18.1539 89.1675 18.1864C88.618 18.2026 88.0684 18.2595 87.5189 18.357C86.9855 18.4382 86.4683 18.5682 85.9672 18.7469C85.4662 18.9256 85.0217 19.1693 84.6338 19.478C84.2621 19.7704 83.9631 20.1441 83.7368 20.599C83.5105 21.0376 83.3974 21.5737 83.3974 22.2073C83.3974 22.7922 83.5186 23.3039 83.761 23.7426C84.0035 24.1812 84.3186 24.5468 84.7066 24.8392C85.1106 25.1317 85.5632 25.351 86.0642 25.4972C86.5814 25.6434 87.1067 25.7165 87.6401 25.7165C88.4159 25.7165 89.1271 25.5703 89.7736 25.2779C90.4201 24.9692 90.9535 24.4818 91.3737 23.8157ZM90.6706 20.1847H91.2767V20.8426C91.2767 21.6712 91.0343 22.3292 90.5494 22.8166C90.0807 23.2877 89.3453 23.5233 88.3432 23.5233C88.1007 23.5233 87.8583 23.4989 87.6159 23.4502C87.3734 23.3852 87.1552 23.2877 86.9613 23.1577C86.7673 23.0278 86.6057 22.8734 86.4764 22.6947C86.3632 22.4998 86.3067 22.2642 86.3067 21.988C86.3067 21.5656 86.4602 21.2407 86.7673 21.0132C87.0744 20.7695 87.4462 20.5908 87.8825 20.4771C88.3351 20.3471 88.8119 20.2659 89.313 20.2334C89.814 20.2009 90.2666 20.1847 90.6706 20.1847ZM95.8373 16.2125V13.7268H98.2375V10.3395H101.147V13.7268H104.347V16.2125H101.147V21.33C101.147 21.9149 101.252 22.3779 101.462 22.7191C101.688 23.0603 102.125 23.2308 102.771 23.2308C103.03 23.2308 103.313 23.2065 103.62 23.1577C103.927 23.0927 104.169 22.9953 104.347 22.8653V25.3266C104.04 25.4728 103.66 25.5703 103.208 25.619C102.771 25.684 102.383 25.7165 102.044 25.7165C101.268 25.7165 100.63 25.6272 100.129 25.4485C99.6437 25.286 99.2557 25.0342 98.9648 24.693C98.69 24.3356 98.4961 23.8969 98.3829 23.3771C98.286 22.8572 98.2375 22.2561 98.2375 21.5737V16.2125H95.8373ZM109.964 22.646C109.382 22.1586 109.042 21.4762 108.945 20.599H117.819V19.7948C117.819 18.7713 117.681 17.8696 117.407 17.0898C117.148 16.2937 116.776 15.6276 116.291 15.0915C115.823 14.5554 115.249 14.1492 114.57 13.873C113.907 13.5806 113.172 13.4344 112.364 13.4344C111.491 13.4344 110.667 13.5806 109.891 13.873C109.115 14.1654 108.444 14.5797 107.879 15.1159C107.313 15.652 106.86 16.3018 106.521 17.0654C106.198 17.8127 106.036 18.6494 106.036 19.5754C106.036 20.5015 106.198 21.3463 106.521 22.1099C106.86 22.8572 107.313 23.4989 107.879 24.035C108.444 24.5712 109.115 24.9854 109.891 25.2779C110.667 25.5703 111.491 25.7165 112.364 25.7165C113.285 25.7165 114.166 25.5378 115.007 25.1804C115.847 24.823 116.607 24.2219 117.285 23.3771L115.2 21.7931C114.829 22.2479 114.392 22.6297 113.891 22.9384C113.406 23.2308 112.8 23.3771 112.073 23.3771C111.249 23.3771 110.546 23.1334 109.964 22.646ZM114.109 16.3831C114.627 16.8704 114.893 17.5447 114.91 18.4057H108.945C109.059 17.5609 109.366 16.8867 109.867 16.3831C110.384 15.8794 111.079 15.6276 111.952 15.6276C112.873 15.6276 113.592 15.8794 114.109 16.3831ZM116.485 8.17059H113.188L110.788 11.6798H113.067L116.485 8.17059ZM132.516 13.7268V24.3762C132.516 25.4322 132.387 26.3826 132.128 27.2274C131.87 28.0885 131.466 28.8114 130.916 29.3963C130.383 29.9974 129.704 30.4604 128.88 30.7853C128.055 31.1103 127.077 31.2727 125.946 31.2727C124.863 31.2727 123.837 31.1346 122.867 30.8584C121.897 30.5823 121 30.0786 120.176 29.3475L121.921 26.9594C122.503 27.4955 123.109 27.9098 123.74 28.2022C124.37 28.4946 125.097 28.6408 125.922 28.6408C126.617 28.6408 127.199 28.5434 127.667 28.3484C128.152 28.1535 128.532 27.8854 128.807 27.5442C129.098 27.203 129.3 26.7888 129.413 26.3014C129.542 25.8302 129.607 25.3022 129.607 24.7174V23.8644H129.558C129.138 24.4331 128.581 24.8636 127.886 25.156C127.191 25.4322 126.479 25.5703 125.752 25.5703C124.879 25.5703 124.087 25.416 123.376 25.1073C122.665 24.7824 122.051 24.3518 121.534 23.8157C121.032 23.2796 120.645 22.646 120.37 21.9149C120.095 21.1838 119.958 20.404 119.958 19.5754C119.958 18.7144 120.087 17.9102 120.346 17.1629C120.604 16.4155 120.984 15.7657 121.485 15.2133C121.986 14.661 122.584 14.2304 123.279 13.9218C123.99 13.5968 124.798 13.4344 125.704 13.4344C126.528 13.4344 127.296 13.5968 128.007 13.9218C128.718 14.2467 129.284 14.7666 129.704 15.4814H129.752V13.7268H132.516ZM126.31 16.0663C125.792 16.0663 125.324 16.1556 124.903 16.3343C124.483 16.4968 124.12 16.7323 123.812 17.041C123.522 17.3335 123.287 17.699 123.109 18.1376C122.948 18.56 122.867 19.0312 122.867 19.5511C122.867 20.0222 122.948 20.4609 123.109 20.867C123.287 21.2732 123.53 21.6306 123.837 21.9393C124.144 22.2479 124.507 22.4916 124.928 22.6703C125.348 22.8491 125.801 22.9384 126.285 22.9384C126.819 22.9384 127.296 22.8491 127.716 22.6703C128.152 22.4916 128.516 22.2561 128.807 21.9636C129.114 21.655 129.348 21.2894 129.51 20.867C129.672 20.4446 129.752 19.9897 129.752 19.5023C129.752 18.4788 129.445 17.6503 128.831 17.0167C128.217 16.3831 127.376 16.0663 126.31 16.0663ZM149.382 23.8157H149.309C148.889 24.4818 148.355 24.9692 147.709 25.2779C147.062 25.5703 146.351 25.7165 145.575 25.7165C145.042 25.7165 144.517 25.6434 143.999 25.4972C143.498 25.351 143.046 25.1317 142.642 24.8392C142.254 24.5468 141.939 24.1812 141.696 23.7426C141.454 23.3039 141.333 22.7922 141.333 22.2073C141.333 21.5737 141.446 21.0376 141.672 20.599C141.898 20.1441 142.197 19.7704 142.569 19.478C142.957 19.1693 143.401 18.9256 143.902 18.7469C144.403 18.5682 144.921 18.4382 145.454 18.357C146.004 18.2595 146.553 18.2026 147.103 18.1864C147.652 18.1539 148.169 18.1376 148.654 18.1376H149.382V17.8208C149.382 17.0898 149.131 16.5455 148.63 16.1881C148.129 15.8144 147.491 15.6276 146.715 15.6276C146.101 15.6276 145.527 15.7413 144.993 15.9688C144.46 16.18 143.999 16.4724 143.611 16.8461L142.084 15.3108C142.731 14.6447 143.482 14.1654 144.339 13.873C145.212 13.5806 146.109 13.4344 147.03 13.4344C147.854 13.4344 148.549 13.5318 149.115 13.7268C149.681 13.9055 150.149 14.1411 150.521 14.4335C150.893 14.7259 151.176 15.0671 151.37 15.457C151.58 15.8307 151.725 16.2125 151.806 16.6024C151.903 16.9923 151.96 17.3741 151.976 17.7477C151.992 18.1052 152 18.422 152 18.6981V25.4241H149.382V23.8157ZM149.212 20.1847H148.606C148.202 20.1847 147.749 20.2009 147.248 20.2334C146.747 20.2659 146.27 20.3471 145.818 20.4771C145.381 20.5908 145.01 20.7695 144.702 21.0132C144.395 21.2407 144.242 21.5656 144.242 21.988C144.242 22.2642 144.298 22.4998 144.412 22.6947C144.541 22.8734 144.702 23.0278 144.896 23.1577C145.09 23.2877 145.309 23.3852 145.551 23.4502C145.793 23.4989 146.036 23.5233 146.278 23.5233C147.28 23.5233 148.016 23.2877 148.485 22.8166C148.969 22.3292 149.212 21.6712 149.212 20.8426V20.1847Z"
  />
  <path d="M45.0418 39.8858H40V31.5368H45.0418V32.9873H41.8563V34.8204H44.8203V36.2709H41.8563V38.4239H45.0418V39.8858Z" />
  <path d="M48.7275 40C47.9411 40 47.3223 39.7088 46.8713 39.1263C46.4242 38.5438 46.2006 37.7367 46.2006 36.7049C46.2006 35.658 46.4282 34.8433 46.8832 34.2608C47.3423 33.6745 47.973 33.3813 48.7754 33.3813C49.6177 33.3813 50.2604 33.6935 50.7035 34.3179H50.7634C50.6716 33.842 50.6257 33.4175 50.6257 33.0444V31H52.458V39.8858H51.0568L50.7035 39.0577H50.6257C50.2105 39.6859 49.5778 40 48.7275 40ZM49.3682 38.6123C49.8353 38.6123 50.1766 38.4829 50.3922 38.224C50.6117 37.9651 50.7315 37.5254 50.7514 36.9048V36.7164C50.7514 36.0311 50.6397 35.54 50.4161 35.243C50.1965 34.9461 49.8373 34.7976 49.3383 34.7976C48.9311 34.7976 48.6137 34.9632 48.3862 35.2944C48.1627 35.6218 48.0509 36.0996 48.0509 36.7278C48.0509 37.356 48.1646 37.828 48.3922 38.144C48.6197 38.4562 48.9451 38.6123 49.3682 38.6123Z" />
  <path d="M58.9879 39.8858L58.7424 39.0692H58.6466C58.451 39.3661 58.1736 39.5964 57.8143 39.7602C57.455 39.92 57.0459 40 56.5868 40C55.8004 40 55.2076 39.8001 54.8084 39.4004C54.4092 38.9968 54.2096 38.4181 54.2096 37.6643V33.5013H56.0359V37.2303C56.0359 37.691 56.1217 38.0374 56.2934 38.2697C56.465 38.4981 56.7385 38.6123 57.1137 38.6123C57.6247 38.6123 57.9939 38.4505 58.2215 38.1269C58.449 37.7995 58.5628 37.2589 58.5628 36.5051V33.5013H60.3891V39.8858H58.9879Z" />
  <path d="M64.9011 40C62.8173 40 61.7754 38.9093 61.7754 36.7278C61.7754 35.6428 62.0589 34.8147 62.6257 34.2437C63.1926 33.6688 64.0049 33.3813 65.0628 33.3813C65.8372 33.3813 66.5318 33.526 67.1466 33.8154L66.6077 35.1631C66.3203 35.0527 66.0528 34.9632 65.8053 34.8947C65.5578 34.8223 65.3103 34.7862 65.0628 34.7862C64.1127 34.7862 63.6377 35.4296 63.6377 36.7164C63.6377 37.9651 64.1127 38.5895 65.0628 38.5895C65.4141 38.5895 65.7394 38.5457 66.0388 38.4581C66.3382 38.3668 66.6376 38.2259 66.937 38.0355V39.526C66.6416 39.7049 66.3422 39.8287 66.0388 39.8972C65.7394 39.9657 65.3602 40 64.9011 40Z" />
  <path d="M72.6227 39.8858L72.2694 39.0178H72.2215C71.9141 39.3871 71.5967 39.644 71.2694 39.7887C70.9461 39.9296 70.5229 40 70 40C69.3573 40 68.8503 39.8249 68.479 39.4746C68.1118 39.1244 67.9281 38.6256 67.9281 37.9784C67.9281 37.3008 68.1756 36.802 68.6706 36.4822C69.1696 36.1586 69.9201 35.9797 70.9221 35.9454L72.0838 35.9112V35.6313C72.0838 34.9841 71.7365 34.6605 71.0419 34.6605C70.5069 34.6605 69.8782 34.8147 69.1557 35.1231L68.5509 33.9467C69.3213 33.5622 70.1756 33.3699 71.1137 33.3699C72.0119 33.3699 72.7005 33.5565 73.1796 33.9296C73.6586 34.3027 73.8981 34.8699 73.8981 35.6313V39.8858H72.6227ZM72.0838 36.9277L71.3772 36.9505C70.8463 36.9657 70.4511 37.0571 70.1916 37.2246C69.9321 37.3921 69.8024 37.6472 69.8024 37.9898C69.8024 38.481 70.0978 38.7265 70.6886 38.7265C71.1117 38.7265 71.449 38.6104 71.7005 38.3782C71.956 38.1459 72.0838 37.8376 72.0838 37.453V36.9277Z" />
  <path d="M78.3802 40C76.2964 40 75.2545 38.9093 75.2545 36.7278C75.2545 35.6428 75.5379 34.8147 76.1048 34.2437C76.6716 33.6688 77.484 33.3813 78.5419 33.3813C79.3163 33.3813 80.0109 33.526 80.6256 33.8154L80.0867 35.1631C79.7993 35.0527 79.5319 34.9632 79.2844 34.8947C79.0369 34.8223 78.7894 34.7862 78.5419 34.7862C77.5918 34.7862 77.1167 35.4296 77.1167 36.7164C77.1167 37.9651 77.5918 38.5895 78.5419 38.5895C78.8931 38.5895 79.2185 38.5457 79.5179 38.4581C79.8173 38.3668 80.1167 38.2259 80.4161 38.0355V39.526C80.1207 39.7049 79.8213 39.8287 79.5179 39.8972C79.2185 39.9657 78.8393 40 78.3802 40Z" />
  <path d="M81.7725 31.8509C81.7725 31.2836 82.1038 31 82.7665 31C83.4291 31 83.7604 31.2836 83.7604 31.8509C83.7604 32.1212 83.6766 32.3325 83.509 32.4848C83.3453 32.6332 83.0978 32.7075 82.7665 32.7075C82.1038 32.7075 81.7725 32.422 81.7725 31.8509ZM83.6766 39.8858H81.8503V33.5013H83.6766V39.8858Z" />
  <path d="M86.9312 36.6821C86.9312 37.3141 87.0389 37.7919 87.2545 38.1155C87.4741 38.4391 87.8294 38.6009 88.3204 38.6009C88.8074 38.6009 89.1567 38.441 89.3683 38.1212C89.5838 37.7976 89.6916 37.3179 89.6916 36.6821C89.6916 36.0501 89.5838 35.5761 89.3683 35.2602C89.1527 34.9442 88.7994 34.7862 88.3084 34.7862C87.8214 34.7862 87.4701 34.9442 87.2545 35.2602C87.0389 35.5723 86.9312 36.0463 86.9312 36.6821ZM91.5598 36.6821C91.5598 37.7214 91.2724 38.5343 90.6976 39.1206C90.1227 39.7069 89.3223 40 88.2964 40C87.6537 40 87.0869 39.8668 86.5958 39.6003C86.1048 39.3299 85.7276 38.9435 85.4641 38.441C85.2007 37.9385 85.0689 37.3522 85.0689 36.6821C85.0689 35.639 85.3544 34.828 85.9252 34.2494C86.496 33.6707 87.2984 33.3813 88.3324 33.3813C88.9751 33.3813 89.5419 33.5146 90.0329 33.7811C90.5239 34.0476 90.9012 34.4302 91.1646 34.9289C91.4281 35.4277 91.5598 36.0121 91.5598 36.6821Z" />
  <path d="M99.1257 39.8858H97.2994V36.1567C97.2994 35.6961 97.2136 35.3515 97.0419 35.1231C96.8702 34.8909 96.5968 34.7747 96.2215 34.7747C95.7106 34.7747 95.3413 34.9384 95.1138 35.2659C94.8862 35.5895 94.7725 36.1282 94.7725 36.882V39.8858H92.9462V33.5013H94.3413L94.5869 34.3179H94.6886C94.8922 34.0095 95.1717 33.7773 95.527 33.6212C95.8862 33.4613 96.2934 33.3813 96.7485 33.3813C97.5269 33.3813 98.1177 33.5831 98.5209 33.9867C98.9241 34.3864 99.1257 34.9651 99.1257 35.7227V39.8858Z" />
  <path d="M105.135 39.8858L104.781 39.0178H104.733C104.426 39.3871 104.109 39.644 103.781 39.7887C103.458 39.9296 103.035 40 102.512 40C101.869 40 101.362 39.8249 100.991 39.4746C100.624 39.1244 100.44 38.6256 100.44 37.9784C100.44 37.3008 100.688 36.802 101.183 36.4822C101.682 36.1586 102.432 35.9797 103.434 35.9454L104.596 35.9112V35.6313C104.596 34.9841 104.248 34.6605 103.554 34.6605C103.019 34.6605 102.39 34.8147 101.668 35.1231L101.063 33.9467C101.833 33.5622 102.688 33.3699 103.626 33.3699C104.524 33.3699 105.213 33.5565 105.692 33.9296C106.171 34.3027 106.41 34.8699 106.41 35.6313V39.8858H105.135ZM104.596 36.9277L103.889 36.9505C103.358 36.9657 102.963 37.0571 102.704 37.2246C102.444 37.3921 102.314 37.6472 102.314 37.9898C102.314 38.481 102.61 38.7265 103.201 38.7265C103.624 38.7265 103.961 38.6104 104.213 38.3782C104.468 38.1459 104.596 37.8376 104.596 37.453V36.9277Z" />
  <path d="M110 39.8858H108.174V31H110V39.8858Z" />
</svg>
