<svg width="32" height="32" viewBox="0 0 32 32" fill="none" xmlns="http://www.w3.org/2000/svg">
    <path d="M0 4C0 1.79086 1.79086 0 4 0H28C30.2091 0 32 1.79086 32 4V28C32 30.2091 30.2091 32 28 32H4C1.79086 32 0 30.2091 0 28V4Z" fill="#1877F2"/>
    <path d="M27 16C27 9.92486 22.0751 5 16 5C9.92486 5 5 9.92486 5 16C5 21.4903 9.02252 26.0412 14.2812 26.8664V19.1797H11.4883V16H14.2812V13.5766C14.2812 10.8197 15.9235 9.29688 18.4361 9.29688C19.6397 9.29688 20.8984 9.51172 20.8984 9.51172V12.2188H19.5114C18.145 12.2188 17.7188 13.0667 17.7188 13.9366V16H20.7695L20.2818 19.1797H17.7188V26.8664C22.9775 26.0412 27 21.4903 27 16Z" fill="white"/>
    <path d="M20.2818 19.1797L20.7695 16H17.7188V13.9366C17.7188 13.0667 18.145 12.2188 19.5114 12.2188H20.8984V9.51172C20.8984 9.51172 19.6397 9.29688 18.4361 9.29688C15.9235 9.29688 14.2812 10.8197 14.2812 13.5766V16H11.4883V19.1797H14.2812V26.8664C14.8413 26.9542 15.4152 27 16 27C16.5848 27 17.1587 26.9542 17.7188 26.8664V19.1797H20.2818Z" fill="#1877F2"/>
    </svg>
