<svg width="408" height="183" viewBox="0 0 408 183" fill="none" xmlns="http://www.w3.org/2000/svg">
  <g opacity="0.5">
    <path d="M122.6 68.9715C138.132 68.9715 150.724 56.4203 150.724 40.9376C150.724 25.4549 138.132 12.9037 122.6 12.9037C107.067 12.9037 94.4756 25.4549 94.4756 40.9376C94.4756 56.4203 107.067 68.9715 122.6 68.9715Z" fill="#00CD80"/>
  </g>
  <g opacity="0.4">
    <path opacity="0.4" d="M203.739 164.263C249.023 164.263 285.733 127.671 285.733 82.5318C285.733 37.3929 249.023 0.800537 203.739 0.800537C158.455 0.800537 121.745 37.3929 121.745 82.5318C121.745 127.671 158.455 164.263 203.739 164.263Z" fill="white"/>
  </g>
  <path opacity="0.3" d="M83.936 85.6591H92.683C98.5666 85.6591 103.336 90.4287 103.336 96.3123V129.788C103.336 135.671 108.106 140.441 113.989 140.441H362.724" stroke="#CCCCCC" stroke-width="2.66331"/>
  <path opacity="0.3" d="M344.737 141.437V141.437C342.51 141.437 340.704 143.243 340.704 145.47V163.653C340.704 169.537 335.935 174.306 330.051 174.306H286.781" stroke="#CCCCCC" stroke-width="2.66331"/>
  <g opacity="0.3">
    <g opacity="0.3">
      <path opacity="0.3" d="M224.146 81.1107V70.0127H212.66H199.534V90.5733L224.146 81.1107Z" fill="#594ABA"/>
    </g>
  </g>
  <path d="M137.5 130.5L140.233 120.012C142.812 110.783 150.547 103.774 160.04 102.139L193.558 96.2975C193.558 96.4143 193.558 96.4143 193.558 96.5311C193.558 106.461 201.645 114.405 211.489 114.405C221.451 114.405 229.42 106.344 229.42 96.5311C229.42 96.4143 229.42 96.4143 229.42 96.2975L261 102.139C270.493 103.774 276.5 111.595 278.5 116.5C278.5 116.5 260.011 160 211 164C161.989 168 137.5 130.5 137.5 130.5Z" fill="white" fill-opacity="0.3"/>
  <path fill-rule="evenodd" clip-rule="evenodd" d="M183.479 29.2418C183.947 27.0222 185.119 22.1157 187.815 21.1812C189.639 20.4818 191.925 20.871 194.422 21.2961C196.096 21.581 197.865 21.8821 199.652 21.8821C203.287 21.8821 205.828 21.4298 208.485 20.9569C211.396 20.4389 214.445 19.8961 219.224 19.8961C228.365 19.8961 234.577 25.9708 234.577 36.7184V45.3196C234.577 46.371 235.397 47.1887 236.452 47.1887C237.249 47.1887 237.627 46.9745 238.192 46.6548C238.374 46.5515 238.576 46.4372 238.818 46.3156C239.427 46.0092 240.61 45.8913 241.594 45.9578C241.638 45.9539 241.681 45.9505 241.725 45.9476C244.889 45.9476 247.468 48.6345 247.468 51.7886C247.468 54.9856 245.005 57.513 241.829 57.6258C239.272 67.1143 232.764 75.0092 224.149 79.4179V97.106C224.891 97.1806 225.632 97.2619 226.372 97.3498L229.379 97.7481C228.753 107.002 221.036 114.405 211.489 114.405C202.055 114.405 194.235 107.109 193.6 97.7618L196.721 97.3498C197.659 97.2385 198.598 97.1379 199.537 97.0478V81.6519C189.941 78.1073 183.127 68.9157 183.127 58.0968V33.6811C183.127 32.1624 183.244 30.6437 183.479 29.2418Z" fill="#499CF9"/>
  <path opacity="0.4" d="M74.9434 160.091C74.9434 154.59 79.4028 150.131 84.9037 150.131L170.902 150.131C176.403 150.131 180.863 154.59 180.863 160.091V160.091C180.863 165.592 176.403 170.052 170.902 170.052H84.9037C79.4028 170.052 74.9434 165.592 74.9434 160.091V160.091Z" fill="#2363C1" fill-opacity="0.7"/>
  <path opacity="0.4" d="M0 86.5C0 82.9101 2.91015 80 6.5 80L63.5 80C67.0899 80 70 82.9101 70 86.5V86.5C70 90.0899 67.0898 93 63.5 93H6.5C2.91015 93 0 90.0899 0 86.5V86.5Z" fill="#2E6ECE"/>
  <path d="M260.806 128.298C260.806 125.368 263.181 122.993 266.111 122.993L396.548 122.993C399.478 122.993 401.854 125.368 401.854 128.298V128.298C401.854 131.228 399.478 133.604 396.548 133.604H266.111C263.181 133.604 260.806 131.228 260.806 128.298V128.298Z" fill="#00CD80" fill-opacity="0.5"/>
  <path d="M90.9307 179.016C90.9307 176.815 92.7144 175.032 94.9148 175.032L256.817 175.032C259.017 175.032 260.801 176.815 260.801 179.016V179.016C260.801 181.216 259.017 183 256.817 183H94.9148C92.7144 183 90.9307 181.216 90.9307 179.016V179.016Z" fill="#6EB6FF"/>
  <path opacity="0.4" d="M305 72C305 69.7909 306.791 68 309 68L367 68C369.209 68 371 69.7909 371 72V72C371 74.2091 369.209 76 367 76H309C306.791 76 305 74.2091 305 72V72Z" fill="#2B82D9"/>
  <path opacity="0.4" d="M305 98C305 95.7909 306.791 94 309 94L404 94C406.209 94 408 95.7909 408 98V98C408 100.209 406.209 102 404 102H309C306.791 102 305 100.209 305 98V98Z" fill="#2B82D9"/>
</svg>
